<?xml version='1.0' encoding='utf-8'?>
<svg xmlns="http://www.w3.org/2000/svg" viewBox="0 0 173.078 149.063" width="173.078" height="149.063">
  <g transform="translate(-32.523 -14.766)">
    <g transform="matrix(1 0 0 1 136.526 860.277)">
      <path id="path235" style="fill:#000000;fill-opacity:1;fill-rule:evenodd;stroke-width:0.431982;stroke-linecap:round;stroke-linejoin:round;stroke-miterlimit:5.6;stroke-dasharray:0.431982, 3.45586;paint-order:stroke fill markers" d="m -32.750252,-830.51111 c -6.03669,0 -10.9266,4.73606 -11.17181,10.71043 h 7.50883 c 1.41276,0 2.55013,1.13736 2.55013,2.55015 0,1.41271 -1.13737,2.55008 -2.55013,2.55008 h -5.28705 c -1.23628,0 -2.23161,0.99536 -2.23161,2.23167 v 1.52179 5.85985 h 2.2303 2.3096 c 3.22836,-5.08427 8.86921,-7.84828 14.55495,-7.59529 2.26221,0.10067 4.54138,0.67826 6.66338,1.75114 0.74614,-1.72992 1.16072,-3.64599 1.1607,-5.66255 0,-6.80795 -6.80503,-13.91715 -15.04236,-13.91727 z m 7.71987,22.1778 c -4.2643,-0.18966 -8.48414,1.90712 -10.84543,5.83694 l -1.5926,2.65041 -18.10324,30.20967 c 4.42521,2.24802 9.88977,0.76849 12.50946,-3.44735 l 7.45116,-11.99238 5.37291,-8.94286 26.8199604,16.11545 8.49585,-14.02864 -24.4356504,-14.68279 c -1.78629,-1.07329 -3.7341,-1.63221 -5.67242,-1.71845 z m -25.3971,17.20738 c -0.41125,0.004 -0.80953,0.14435 -1.13187,0.39977 l -18.5725,14.73521 h -8.68461 c -0.86544,0 -1.56246,3.2611 -1.56246,7.31154 0,4.05042 0.69702,7.31089 1.56246,7.31089 0,0 2.72719,-1.47869 4.14012,-2.11559 1.25532,-0.56589 3.24595,-1.34941 4.45601,-1.47465 v 3.88518 c -11.07084,2.92701 -18.78233,12.94244 -18.78223,24.39366 1.9e-4,13.93477 11.29651,25.23111 25.23129,25.23132 11.81044,3e-5 22.04068,-8.1925 24.62178,-19.71745 h 3.13998 c -0.73305,3.69017 -2.18728,7.12537 -4.20827,10.15202 h 29.26523 20.0176404 c 4.7857196,6.04207 12.0706696,9.56526 19.7784296,9.56543 13.93504,1.5e-4 25.23177,-11.29628 25.23195,-25.23132 1.3e-4,-13.93527 -11.29668,-25.23205 -25.23195,-25.23189 -13.43114,2.4e-4 -24.5079296,10.52214 -25.1978696,23.93555 -0.32269,0.92937 -0.71781,1.88512 -1.13972,2.49641 -0.91477,1.32528 -2.18524,2.48393 -3.63743,3.17991 -0.9923,0.47562 -2.46821,0.72473 -3.25074,0.57611 l -34.3274804,-35.67233 h -21.13772 v -2.35546 l 11.02763,-18.5817 c 0.62706,-1.05793 0.066,-2.42184 -1.12399,-2.73234 -0.15786,-0.0413 -0.3205,-0.0616 -0.48368,-0.0603 z m 58.6589204,1.12925 -8.37919,14.1112 H -24.532942 c -4.03059,0 -7.27484,3.24495 -7.27484,7.27554 0,1.97544 0.77951,3.76228 2.04875,5.07074 l 28.1124004,28.99588 c 0.20024,-0.15736 0.39397,-0.32288 0.58068,-0.4961 3.77447,-3.5073 3.99074,-9.41049 0.48301,-13.18457 l -14.6453904,-15.76154 h 29.10728 v -0.0238 c 3.85513,0.26125 7.53055,-1.66384 9.51106,-4.98161 2.9066,-4.8695 1.31532,-11.1733 -3.5542,-14.07982 z m -72.0027104,37.71061 c 1.15088,-4e-5 2.29824,0.1273 3.42114,0.37947 l -5.0452,10.07991 c -2.24547,0.70873 -3.77224,2.79147 -3.77244,5.14614 -1.2e-4,2.98058 2.41595,5.39691 5.3965,5.39711 2.98081,1.6e-4 5.39728,-2.41631 5.39715,-5.39711 -1.4e-4,-1.1002 -0.33652,-2.17403 -0.96408,-3.07769 l 4.76798,-9.5268 c 4.02513,2.93806 6.40509,7.62177 6.40515,12.60512 3e-5,8.61907 -6.98712,15.60624 -15.6062,15.60624 -8.61908,0 -15.60623,-6.98717 -15.6062,-15.60624 2e-5,-8.61906 6.98715,-15.60615 15.6062,-15.60615 z m 92.61479,0 c 8.61906,0 15.60619,6.98709 15.60621,15.60615 3e-5,8.61907 -6.98712,15.60624 -15.60621,15.60624 -8.61908,0 -15.60622,-6.98717 -15.60619,-15.60624 1.1e-4,-4.1727 1.67124,-8.17155 4.64017,-11.10359 l 5.85921,9.3583 c -0.19184,0.56166 -0.28971,1.15114 -0.28969,1.74466 -1.2e-4,2.98058 2.41595,5.39691 5.3965,5.39711 2.98081,1.6e-4 5.39729,-2.41631 5.39716,-5.39711 -1.6e-4,-2.94557 -2.36217,-5.34699 -5.30737,-5.39584 l -5.7314,-9.15452 c 1.79913,-0.69745 3.71201,-1.05523 5.64161,-1.05516 z" />
    </g>
  </g>
</svg>