<?xml version='1.0' encoding='utf-8'?>
<svg xmlns="http://www.w3.org/2000/svg" viewBox="0 0 483 240" width="483" height="240">
  <g transform="translate(-63.3 -184.4)">
    <g transform="matrix(1 0 0 1 -41.081 -863.152)" style="fill:#ffcc00;fill-opacity:1;stroke:none;stroke-width:1.5107044">
      <path d="M 220.90003,1123.7536 H 191.3144 v -6.6713 q 0,-10.1519 -4.93094,-17.4033 -4.64089,-7.5415 -15.95304,-7.5415 -6.09116,0 -10.15193,2.3205 -3.77072,2.3204 -6.09116,6.0912 -2.03039,3.4806 -2.90056,8.4116 -0.87016,4.6408 -0.87016,9.8618 0,6.0912 0.29005,10.442 0.58011,4.0608 2.32045,7.2514 1.74033,2.9006 4.93094,5.221 3.48066,2.3204 9.28176,4.6409 l 22.62431,8.9917 q 9.86188,3.7707 15.95304,8.9917 6.09116,4.9309 9.28177,11.8923 3.48066,6.6712 4.64088,15.663 1.16022,8.7016 1.16022,20.0138 0,13.0524 -2.6105,24.3646 -2.61049,11.0221 -8.70165,19.1437 -5.80111,7.8315 -15.66299,12.4724 -9.86187,4.6408 -24.07458,4.6408 -10.73204,0 -20.01381,-3.7707 -9.28177,-3.7707 -15.95304,-10.1519 -6.67127,-6.6713 -10.73204,-15.663 -3.77072,-8.9917 -3.77072,-19.4337 v -11.0221 h 29.58563 v 9.2817 q 0,8.1216 4.64089,14.7929 4.93094,6.3812 16.24309,6.3812 7.54144,0 11.60221,-2.0304 4.35083,-2.3205 6.38121,-6.0912 2.32045,-4.0607 2.90056,-9.8619 0.58011,-5.8011 0.58011,-12.7624 0,-8.1215 -0.58011,-13.3425 -0.58011,-5.221 -2.6105,-8.4116 -1.74033,-3.1906 -5.22099,-5.221 -3.19061,-2.0304 -8.70166,-4.3508 l -21.17403,-8.7017 q -19.14365,-7.8315 -25.81492,-20.5939 -6.38122,-13.0525 -6.38122,-32.4862 0,-11.6022 3.19061,-22.0442 3.19061,-10.442 9.28177,-17.9834 6.38122,-7.5415 15.95304,-11.8923 9.57182,-4.6409 22.33425,-4.6409 11.0221,0 20.01381,4.0608 9.28177,4.0608 15.66299,10.732 6.67127,6.6713 10.15193,15.0829 3.48066,8.1216 3.48066,16.8232 z" style="letter-spacing:5.6500001px;fill:#ffffff;stroke:none;stroke-width:1.5107044" id="path921" />
    </g>
    <g transform="matrix(1 0 0 1 -41.081 -863.152)" style="fill:#ffcc00;fill-opacity:1;stroke:none;stroke-width:1.5107044">
      <path d="M 268.09722,1092.1375 H 233.8707 v -27.8453 h 98.03867 v 27.8453 h -34.22652 v 178.6741 h -29.58563 z" style="letter-spacing:5.6500001px;fill:#ffffff;stroke:none;stroke-width:1.5107044" id="path923" />
    </g>
    <g transform="matrix(1 0 0 1 -41.081 -863.152)" style="fill:#ffcc00;fill-opacity:1;stroke:none;stroke-width:1.5107044">
      <path d="m 345.4807,1113.0215 q 0,-12.4723 4.35083,-22.0442 4.35083,-9.5718 11.31215,-15.663 7.25138,-6.3812 15.95304,-9.5718 8.99171,-3.1906 17.98342,-3.1906 8.99172,0 17.69337,3.1906 8.99172,3.1906 15.95304,9.5718 7.25138,6.0912 11.60221,15.663 4.35083,9.5719 4.35083,22.0442 v 109.0608 q 0,12.7624 -4.35083,22.3342 -4.35083,9.2818 -11.60221,15.6631 -6.96132,6.0911 -15.95304,9.2817 -8.70165,3.1906 -17.69337,3.1906 -8.99171,0 -17.98342,-3.1906 -8.70166,-3.1906 -15.95304,-9.2817 -6.96132,-6.3813 -11.31215,-15.6631 -4.35083,-9.5718 -4.35083,-22.3342 z m 29.58563,109.0608 q 0,10.732 5.80111,15.953 6.09116,4.931 14.2127,4.931 8.12155,0 13.92266,-4.931 6.09116,-5.221 6.09116,-15.953 v -109.0608 q 0,-10.732 -6.09116,-15.663 -5.80111,-5.221 -13.92266,-5.221 -8.12154,0 -14.2127,5.221 -5.80111,4.931 -5.80111,15.663 z" style="letter-spacing:5.6500001px;fill:#ffffff;stroke:none;stroke-width:1.5107044" id="path925" />
    </g>
    <g transform="matrix(1 0 0 1 -41.081 -863.152)" style="fill:#ffcc00;fill-opacity:1;stroke:none;stroke-width:1.5107044">
      <path d="m 476.3727,1064.2922 h 44.37845 q 12.18232,0 21.46409,3.1907 9.28177,3.1906 16.8232,11.3121 7.54144,8.1216 10.44199,19.1437 2.90055,10.732 2.90055,29.2955 0,13.6326 -1.74033,23.4945 -1.45027,9.5718 -6.67127,17.9834 -6.09116,10.152 -16.24309,15.9531 -10.15193,5.511 -26.68508,5.511 h -15.08287 v 80.6354 H 476.3727 Z m 29.58564,98.0387 h 14.2127 q 8.99171,0 13.92265,-2.6105 4.93094,-2.6105 7.25138,-6.9613 2.32045,-4.6409 2.6105,-11.0221 0.58011,-6.3812 0.58011,-14.2127 0,-7.2514 -0.58011,-13.6326 -0.29005,-6.6713 -2.6105,-11.3122 -2.03038,-4.9309 -6.67127,-7.5414 -4.64088,-2.9006 -13.34254,-2.9006 h -15.37292 z" style="letter-spacing:5.6500001px;fill:#ffffff;stroke:none;stroke-width:1.5107044" id="path927" />
    </g>
  </g>
</svg>